<svg xmlns="http://www.w3.org/2000/svg" viewBox="0 0 688 54" width="688" height="54">
  <style>text { font-family: JetBrains Mono, Cascadia Code, Consolas, monospace; }</style>
  <rect width="100%" height="100%" rx="6" fill="#0d1117"/>
  <text x="12.0" y="33.0" font-size="14" fill="rgb(93,93,93)">O</text>
  <text x="20.4" y="33.0" font-size="14" fill="rgb(93,93,93)">p</text>
  <text x="28.8" y="33.0" font-size="14" fill="rgb(93,93,93)">4</text>
  <text x="37.2" y="33.0" font-size="14" fill="rgb(93,93,93)">.</text>
  <text x="45.6" y="33.0" font-size="14" fill="rgb(93,93,93)">6</text>
  <text x="54.0" y="33.0" font-size="14" fill="rgb(93,93,93)"> </text>
  <text x="62.4" y="33.0" font-size="14" fill="rgb(93,93,93)">1</text>
  <text x="70.8" y="33.0" font-size="14" fill="rgb(93,93,93)">M</text>
  <text x="79.2" y="33.0" font-size="14" fill="rgb(187,187,187)"> </text>
  <text x="87.6" y="33.0" font-size="14" fill="rgb(93,93,93)">│</text>
  <text x="96.0" y="33.0" font-size="14" fill="rgb(187,187,187)"> </text>
  <text x="104.4" y="33.0" font-size="14" fill="rgb(255,0,0)">C</text>
  <text x="112.8" y="33.0" font-size="14" fill="rgb(255,135,0)">l</text>
  <text x="121.2" y="33.0" font-size="14" fill="rgb(255,215,0)">a</text>
  <text x="129.6" y="33.0" font-size="14" fill="rgb(135,255,0)">u</text>
  <text x="138.0" y="33.0" font-size="14" fill="rgb(0,255,255)">D</text>
  <text x="146.4" y="33.0" font-size="14" fill="rgb(175,135,255)">e</text>
  <text x="154.8" y="33.0" font-size="14" fill="rgb(93,93,93)">/</text>
  <text x="163.2" y="33.0" font-size="14" fill="rgb(187,187,187)">t</text>
  <text x="171.6" y="33.0" font-size="14" fill="rgb(187,187,187)">o</text>
  <text x="180.0" y="33.0" font-size="14" fill="rgb(187,187,187)">o</text>
  <text x="188.4" y="33.0" font-size="14" fill="rgb(187,187,187)">l</text>
  <text x="196.8" y="33.0" font-size="14" fill="rgb(187,187,187)">s</text>
  <text x="205.2" y="33.0" font-size="14" fill="rgb(187,187,187)">/</text>
  <text x="213.6" y="33.0" font-size="14" fill="rgb(187,187,187)">c</text>
  <text x="222.0" y="33.0" font-size="14" fill="rgb(187,187,187)">l</text>
  <text x="230.4" y="33.0" font-size="14" fill="rgb(187,187,187)">a</text>
  <text x="238.8" y="33.0" font-size="14" fill="rgb(187,187,187)">u</text>
  <text x="247.2" y="33.0" font-size="14" fill="rgb(187,187,187)">d</text>
  <text x="255.6" y="33.0" font-size="14" fill="rgb(187,187,187)">e</text>
  <text x="264.0" y="33.0" font-size="14" fill="rgb(187,187,187)">-</text>
  <text x="272.4" y="33.0" font-size="14" fill="rgb(187,187,187)">s</text>
  <text x="280.8" y="33.0" font-size="14" fill="rgb(187,187,187)">t</text>
  <text x="289.2" y="33.0" font-size="14" fill="rgb(187,187,187)">a</text>
  <text x="297.6" y="33.0" font-size="14" fill="rgb(187,187,187)">t</text>
  <text x="306.0" y="33.0" font-size="14" fill="rgb(187,187,187)">u</text>
  <text x="314.4" y="33.0" font-size="14" fill="rgb(187,187,187)">s</text>
  <text x="322.8" y="33.0" font-size="14" fill="rgb(187,187,187)">l</text>
  <text x="331.2" y="33.0" font-size="14" fill="rgb(187,187,187)">i</text>
  <text x="339.6" y="33.0" font-size="14" fill="rgb(187,187,187)">n</text>
  <text x="348.0" y="33.0" font-size="14" fill="rgb(187,187,187)">e</text>
  <text x="356.4" y="33.0" font-size="14" fill="rgb(187,187,187)"> </text>
  <text x="364.8" y="33.0" font-size="14" fill="rgb(93,93,93)">│</text>
  <text x="373.2" y="33.0" font-size="14" fill="rgb(187,187,187)"> </text>
  <text x="381.6" y="33.0" font-size="14" fill="rgb(0,255,255)">█</text>
  <text x="390.0" y="33.0" font-size="14" fill="rgb(0,255,215)">█</text>
  <text x="398.4" y="33.0" font-size="14" fill="rgb(0,255,175)">█</text>
  <text x="406.8" y="33.0" font-size="14" fill="rgb(0,127,87)">─</text>
  <text x="415.2" y="33.0" font-size="14" fill="rgb(0,127,87)">─</text>
  <text x="423.6" y="33.0" font-size="14" fill="rgb(0,127,87)">─</text>
  <text x="432.0" y="33.0" font-size="14" fill="rgb(0,127,87)">─</text>
  <text x="440.4" y="33.0" font-size="14" fill="rgb(0,127,87)">─</text>
  <text x="448.8" y="33.0" font-size="14" fill="rgb(0,127,87)">─</text>
  <text x="457.2" y="33.0" font-size="14" fill="rgb(0,127,87)">─</text>
  <text x="465.6" y="33.0" font-size="14" fill="rgb(187,187,187)"> </text>
  <text x="474.0" y="33.0" font-size="14" fill="rgb(0,255,135)">3</text>
  <text x="482.4" y="33.0" font-size="14" fill="rgb(0,255,135)">0</text>
  <text x="490.8" y="33.0" font-size="14" fill="rgb(0,255,135)">%</text>
  <text x="499.2" y="33.0" font-size="14" fill="rgb(187,187,187)"> </text>
  <text x="507.6" y="33.0" font-size="14" fill="rgb(93,93,93)">│</text>
  <text x="516.0" y="33.0" font-size="14" fill="rgb(187,187,187)"> </text>
  <text x="524.4" y="33.0" font-size="14" fill="rgb(93,93,93)">5</text>
  <text x="532.8" y="33.0" font-size="14" fill="rgb(93,93,93)">h</text>
  <text x="541.2" y="33.0" font-size="14" fill="rgb(93,93,93)"> </text>
  <text x="549.6" y="33.0" font-size="14" fill="rgb(175,255,95)">4</text>
  <text x="558.0" y="33.0" font-size="14" fill="rgb(175,255,95)">2</text>
  <text x="566.4" y="33.0" font-size="14" fill="rgb(175,255,95)">%</text>
  <text x="574.8" y="33.0" font-size="14" fill="rgb(187,187,187)"> </text>
  <text x="583.2" y="33.0" font-size="14" fill="rgb(93,93,93)">│</text>
  <text x="591.6" y="33.0" font-size="14" fill="rgb(187,187,187)"> </text>
  <text x="600.0" y="33.0" font-size="14" fill="rgb(93,93,93)">7</text>
  <text x="608.4" y="33.0" font-size="14" fill="rgb(93,93,93)">d</text>
  <text x="616.8" y="33.0" font-size="14" fill="rgb(93,93,93)"> </text>
  <text x="625.2" y="33.0" font-size="14" fill="rgb(0,255,135)">1</text>
  <text x="633.6" y="33.0" font-size="14" fill="rgb(0,255,135)">8</text>
  <text x="642.0" y="33.0" font-size="14" fill="rgb(0,255,135)">%</text>
  <text x="650.4" y="33.0" font-size="14" fill="rgb(93,93,93)">@</text>
  <text x="658.8" y="33.0" font-size="14" fill="rgb(93,93,93)">s</text>
  <text x="667.2" y="33.0" font-size="14" fill="rgb(93,93,93)">a</text>
</svg>