<svg xmlns="http://www.w3.org/2000/svg" viewBox="0 0 629 76" width="629" height="76">
  <style>text { font-family: JetBrains Mono, Cascadia Code, Consolas, monospace; }</style>
  <rect width="100%" height="100%" rx="6" fill="#0d1117"/>
  <text x="12.0" y="30.2" font-size="14" fill="rgb(188,188,188)">▐</text>
  <rect x="20.4" y="12" width="8.4" height="26" fill="rgb(0,135,135)"/>
  <text x="20.4" y="30.2" font-size="14" font-weight="bold" fill="rgb(255,255,255)">B</text>
  <rect x="28.8" y="12" width="8.4" height="26" fill="rgb(0,135,135)"/>
  <text x="28.8" y="30.2" font-size="14" font-weight="bold" fill="rgb(255,255,255)">O</text>
  <text x="37.2" y="30.2" font-size="14" fill="rgb(88,88,88)">▌</text>
  <text x="45.6" y="30.2" font-size="14" fill="rgb(187,187,187)"> </text>
  <text x="54.0" y="30.2" font-size="14" fill="rgb(88,88,88)">│</text>
  <text x="62.4" y="30.2" font-size="14" fill="rgb(187,187,187)"> </text>
  <text x="70.8" y="30.2" font-size="14" fill="rgb(188,188,188)">▐</text>
  <rect x="79.2" y="12" width="8.4" height="26" fill="rgb(0,0,135)"/>
  <text x="79.2" y="30.2" font-size="14" font-weight="bold" fill="rgb(255,255,255)">O</text>
  <rect x="87.6" y="12" width="8.4" height="26" fill="rgb(0,0,135)"/>
  <text x="87.6" y="30.2" font-size="14" font-weight="bold" fill="rgb(255,255,255)">p</text>
  <rect x="96.0" y="12" width="8.4" height="26" fill="rgb(0,0,135)"/>
  <text x="96.0" y="30.2" font-size="14" font-weight="bold" fill="rgb(255,255,255)">4</text>
  <rect x="104.4" y="12" width="8.4" height="26" fill="rgb(0,0,135)"/>
  <text x="104.4" y="30.2" font-size="14" font-weight="bold" fill="rgb(255,255,255)">6</text>
  <rect x="112.8" y="12" width="8.4" height="26" fill="rgb(0,0,135)"/>
  <text x="112.8" y="30.2" font-size="14" font-weight="bold" fill="rgb(255,255,255)"> </text>
  <rect x="121.2" y="12" width="8.4" height="26" fill="rgb(0,0,135)"/>
  <text x="121.2" y="30.2" font-size="14" font-weight="bold" fill="rgb(255,255,255)">1</text>
  <rect x="129.6" y="12" width="8.4" height="26" fill="rgb(0,0,135)"/>
  <text x="129.6" y="30.2" font-size="14" font-weight="bold" fill="rgb(255,255,255)">M</text>
  <text x="138.0" y="30.2" font-size="14" fill="rgb(88,88,88)">▌</text>
  <text x="146.4" y="30.2" font-size="14" fill="rgb(187,187,187)"> </text>
  <text x="154.8" y="30.2" font-size="14" fill="rgb(88,88,88)">│</text>
  <text x="163.2" y="30.2" font-size="14" fill="rgb(187,187,187)"> </text>
  <text x="171.6" y="30.2" font-size="14" fill="rgb(88,88,88)">m</text>
  <text x="180.0" y="30.2" font-size="14" fill="rgb(88,88,88)">a</text>
  <text x="188.4" y="30.2" font-size="14" fill="rgb(88,88,88)">x</text>
  <text x="196.8" y="30.2" font-size="14" fill="rgb(187,187,187)"> </text>
  <text x="205.2" y="30.2" font-size="14" fill="rgb(88,88,88)">│</text>
  <text x="213.6" y="30.2" font-size="14" fill="rgb(187,187,187)"> </text>
  <text x="222.0" y="30.2" font-size="14" fill="rgb(88,88,88)">[</text>
  <text x="230.4" y="30.2" font-size="14" fill="rgb(0,135,135)">█</text>
  <text x="238.8" y="30.2" font-size="14" fill="rgb(0,135,135)">█</text>
  <text x="247.2" y="30.2" font-size="14" fill="rgb(0,135,135)">█</text>
  <text x="255.6" y="30.2" font-size="14" fill="rgb(158,158,158)">░</text>
  <text x="264.0" y="30.2" font-size="14" fill="rgb(158,158,158)">░</text>
  <text x="272.4" y="30.2" font-size="14" fill="rgb(158,158,158)">░</text>
  <text x="280.8" y="30.2" font-size="14" fill="rgb(158,158,158)">░</text>
  <text x="289.2" y="30.2" font-size="14" fill="rgb(158,158,158)">░</text>
  <text x="297.6" y="30.2" font-size="14" fill="rgb(158,158,158)">░</text>
  <text x="306.0" y="30.2" font-size="14" fill="rgb(158,158,158)">░</text>
  <text x="314.4" y="30.2" font-size="14" fill="rgb(88,88,88)">]</text>
  <text x="322.8" y="30.2" font-size="14" fill="rgb(187,187,187)"> </text>
  <text x="331.2" y="30.2" font-size="14" fill="rgb(187,187,187)"> </text>
  <text x="339.6" y="30.2" font-size="14" fill="rgb(0,135,0)">3</text>
  <text x="348.0" y="30.2" font-size="14" fill="rgb(0,135,0)">0</text>
  <text x="356.4" y="30.2" font-size="14" fill="rgb(0,135,0)">%</text>
  <text x="364.8" y="30.2" font-size="14" fill="rgb(187,187,187)"> </text>
  <text x="373.2" y="30.2" font-size="14" fill="rgb(88,88,88)">│</text>
  <text x="381.6" y="30.2" font-size="14" fill="rgb(187,187,187)"> </text>
  <text x="390.0" y="30.2" font-size="14" fill="rgb(158,158,158)">5</text>
  <text x="398.4" y="30.2" font-size="14" fill="rgb(158,158,158)">h</text>
  <text x="406.8" y="30.2" font-size="14" fill="rgb(158,158,158)"> </text>
  <text x="415.2" y="30.2" font-size="14" fill="rgb(0,135,0)">4</text>
  <text x="423.6" y="30.2" font-size="14" fill="rgb(0,135,0)">2</text>
  <text x="432.0" y="30.2" font-size="14" fill="rgb(0,135,0)">%</text>
  <text x="440.4" y="30.2" font-size="14" fill="rgb(187,187,187)"> </text>
  <text x="448.8" y="30.2" font-size="14" fill="rgb(88,88,88)">│</text>
  <text x="457.2" y="30.2" font-size="14" fill="rgb(187,187,187)"> </text>
  <text x="465.6" y="30.2" font-size="14" fill="rgb(158,158,158)">7</text>
  <text x="474.0" y="30.2" font-size="14" fill="rgb(158,158,158)">d</text>
  <text x="482.4" y="30.2" font-size="14" fill="rgb(158,158,158)"> </text>
  <text x="490.8" y="30.2" font-size="14" fill="rgb(0,135,135)">1</text>
  <text x="499.2" y="30.2" font-size="14" fill="rgb(0,135,135)">8</text>
  <text x="507.6" y="30.2" font-size="14" fill="rgb(0,135,135)">%</text>
  <text x="516.0" y="30.2" font-size="14" fill="rgb(88,88,88)">@</text>
  <text x="524.4" y="30.2" font-size="14" fill="rgb(88,88,88)">s</text>
  <text x="532.8" y="30.2" font-size="14" fill="rgb(88,88,88)">u</text>
  <text x="541.2" y="30.2" font-size="14" fill="rgb(187,187,187)"> </text>
  <text x="549.6" y="30.2" font-size="14" fill="rgb(88,88,88)">│</text>
  <text x="558.0" y="30.2" font-size="14" fill="rgb(187,187,187)"> </text>
  <text x="566.4" y="30.2" font-size="14" fill="rgb(88,88,88)">1</text>
  <text x="574.8" y="30.2" font-size="14" fill="rgb(88,88,88)">h</text>
  <text x="583.2" y="30.2" font-size="14" fill="rgb(88,88,88)">2</text>
  <text x="591.6" y="30.2" font-size="14" fill="rgb(88,88,88)">3</text>
  <text x="600.0" y="30.2" font-size="14" fill="rgb(88,88,88)">m</text>
  <text x="608.4" y="30.2" font-size="14" fill="rgb(187,187,187)"></text>
  <text x="12.0" y="56.2" font-size="13" fill="rgb(158,158,158)">C</text>
  <text x="20.4" y="56.2" font-size="13" fill="rgb(158,158,158)">:</text>
  <text x="28.8" y="56.2" font-size="13" fill="rgb(158,158,158)">\</text>
  <text x="37.2" y="56.2" font-size="13" fill="rgb(158,158,158)">&gt;</text>
  <text x="45.6" y="56.2" font-size="13" fill="rgb(187,187,187)"> </text>
  <text x="54.0" y="56.2" font-size="13" fill="rgb(188,188,188)">/</text>
  <text x="62.4" y="56.2" font-size="13" fill="rgb(188,188,188)">h</text>
  <text x="70.8" y="56.2" font-size="13" fill="rgb(188,188,188)">o</text>
  <text x="79.2" y="56.2" font-size="13" fill="rgb(188,188,188)">m</text>
  <text x="87.6" y="56.2" font-size="13" fill="rgb(188,188,188)">e</text>
  <text x="96.0" y="56.2" font-size="13" fill="rgb(188,188,188)">/</text>
  <text x="104.4" y="56.2" font-size="13" fill="rgb(188,188,188)">u</text>
  <text x="112.8" y="56.2" font-size="13" fill="rgb(188,188,188)">s</text>
  <text x="121.2" y="56.2" font-size="13" fill="rgb(188,188,188)">e</text>
  <text x="129.6" y="56.2" font-size="13" fill="rgb(188,188,188)">r</text>
  <text x="138.0" y="56.2" font-size="13" fill="rgb(188,188,188)">/</text>
  <text x="146.4" y="56.2" font-size="13" fill="rgb(188,188,188)">p</text>
  <text x="154.8" y="56.2" font-size="13" fill="rgb(188,188,188)">r</text>
  <text x="163.2" y="56.2" font-size="13" fill="rgb(188,188,188)">o</text>
  <text x="171.6" y="56.2" font-size="13" fill="rgb(188,188,188)">j</text>
  <text x="180.0" y="56.2" font-size="13" fill="rgb(188,188,188)">e</text>
  <text x="188.4" y="56.2" font-size="13" fill="rgb(188,188,188)">c</text>
  <text x="196.8" y="56.2" font-size="13" fill="rgb(188,188,188)">t</text>
  <text x="205.2" y="56.2" font-size="13" fill="rgb(188,188,188)">s</text>
  <text x="213.6" y="56.2" font-size="13" fill="rgb(188,188,188)">/</text>
  <text x="222.0" y="56.2" font-size="13" fill="rgb(188,188,188)">c</text>
  <text x="230.4" y="56.2" font-size="13" fill="rgb(188,188,188)">l</text>
  <text x="238.8" y="56.2" font-size="13" fill="rgb(188,188,188)">a</text>
  <text x="247.2" y="56.2" font-size="13" fill="rgb(188,188,188)">u</text>
  <text x="255.6" y="56.2" font-size="13" fill="rgb(188,188,188)">d</text>
  <text x="264.0" y="56.2" font-size="13" fill="rgb(188,188,188)">e</text>
  <text x="272.4" y="56.2" font-size="13" fill="rgb(188,188,188)">-</text>
  <text x="280.8" y="56.2" font-size="13" fill="rgb(188,188,188)">s</text>
  <text x="289.2" y="56.2" font-size="13" fill="rgb(188,188,188)">t</text>
  <text x="297.6" y="56.2" font-size="13" fill="rgb(188,188,188)">a</text>
  <text x="306.0" y="56.2" font-size="13" fill="rgb(188,188,188)">t</text>
  <text x="314.4" y="56.2" font-size="13" fill="rgb(188,188,188)">u</text>
  <text x="322.8" y="56.2" font-size="13" fill="rgb(188,188,188)">s</text>
  <text x="331.2" y="56.2" font-size="13" fill="rgb(188,188,188)">l</text>
  <text x="339.6" y="56.2" font-size="13" fill="rgb(188,188,188)">i</text>
  <text x="348.0" y="56.2" font-size="13" fill="rgb(188,188,188)">n</text>
  <text x="356.4" y="56.2" font-size="13" fill="rgb(188,188,188)">e</text>
</svg>