<svg xmlns="http://www.w3.org/2000/svg" viewBox="0 0 570 76" width="570" height="76">
  <title>lcars theme / synthetic session at 42% context</title><style>text { font-family: JetBrains Mono, Cascadia Code, Consolas, monospace; }</style>
  <rect width="100%" height="100%" rx="0" fill="#0d1117"/>
  <text x="12.0" y="30.2" font-size="14" fill="rgb(255,215,135)">▐</text>
  <rect x="20.4" y="12" width="8.4" height="26" fill="rgb(255,215,135)"/>
  <text x="20.4" y="30.2" font-size="14" font-weight="bold" fill="rgb(0,0,0)">D</text>
  <rect x="28.8" y="12" width="8.4" height="26" fill="rgb(255,215,135)"/>
  <text x="28.8" y="30.2" font-size="14" font-weight="bold" fill="rgb(0,0,0)">E</text>
  <text x="37.2" y="30.2" font-size="14" fill="rgb(255,215,135)">▌</text>
  <text x="45.6" y="30.2" font-size="14" fill="rgb(187,187,187)"> </text>
  <text x="54.0" y="30.2" font-size="14" fill="rgb(135,95,135)">━</text>
  <text x="62.4" y="30.2" font-size="14" fill="rgb(187,187,187)"> </text>
  <text x="70.8" y="30.2" font-size="14" fill="rgb(215,175,215)">▐</text>
  <rect x="79.2" y="12" width="8.4" height="26" fill="rgb(215,175,215)"/>
  <text x="79.2" y="30.2" font-size="14" font-weight="bold" fill="rgb(0,0,0)">O</text>
  <rect x="87.6" y="12" width="8.4" height="26" fill="rgb(215,175,215)"/>
  <text x="87.6" y="30.2" font-size="14" font-weight="bold" fill="rgb(0,0,0)">P</text>
  <rect x="96.0" y="12" width="8.4" height="26" fill="rgb(215,175,215)"/>
  <text x="96.0" y="30.2" font-size="14" font-weight="bold" fill="rgb(0,0,0)">4</text>
  <rect x="104.4" y="12" width="8.4" height="26" fill="rgb(215,175,215)"/>
  <text x="104.4" y="30.2" font-size="14" font-weight="bold" fill="rgb(0,0,0)">6</text>
  <rect x="112.8" y="12" width="8.4" height="26" fill="rgb(215,175,215)"/>
  <text x="112.8" y="30.2" font-size="14" font-weight="bold" fill="rgb(0,0,0)"> </text>
  <rect x="121.2" y="12" width="8.4" height="26" fill="rgb(215,175,215)"/>
  <text x="121.2" y="30.2" font-size="14" font-weight="bold" fill="rgb(0,0,0)">1</text>
  <rect x="129.6" y="12" width="8.4" height="26" fill="rgb(215,175,215)"/>
  <text x="129.6" y="30.2" font-size="14" font-weight="bold" fill="rgb(0,0,0)">M</text>
  <text x="138.0" y="30.2" font-size="14" fill="rgb(215,175,215)">▌</text>
  <text x="146.4" y="30.2" font-size="14" fill="rgb(187,187,187)"> </text>
  <text x="154.8" y="30.2" font-size="14" fill="rgb(135,95,135)">━</text>
  <text x="163.2" y="30.2" font-size="14" fill="rgb(187,187,187)"> </text>
  <text x="171.6" y="30.2" font-size="14" fill="rgb(135,95,135)">▐</text>
  <text x="180.0" y="30.2" font-size="14" fill="rgb(0,95,135)">█</text>
  <text x="188.4" y="30.2" font-size="14" fill="rgb(95,135,215)">█</text>
  <text x="196.8" y="30.2" font-size="14" fill="rgb(175,215,255)">█</text>
  <text x="205.2" y="30.2" font-size="14" fill="rgb(255,215,95)">█</text>
  <text x="213.6" y="30.2" font-size="14" fill="rgb(255,175,0)">█</text>
  <text x="222.0" y="30.2" font-size="14" fill="rgb(135,95,135)">━</text>
  <text x="230.4" y="30.2" font-size="14" fill="rgb(135,95,135)">━</text>
  <text x="238.8" y="30.2" font-size="14" fill="rgb(135,95,135)">━</text>
  <text x="247.2" y="30.2" font-size="14" fill="rgb(135,95,135)">━</text>
  <text x="255.6" y="30.2" font-size="14" fill="rgb(135,95,135)">━</text>
  <text x="264.0" y="30.2" font-size="14" fill="rgb(135,95,135)">━</text>
  <text x="272.4" y="30.2" font-size="14" fill="rgb(135,95,135)">━</text>
  <text x="280.8" y="30.2" font-size="14" fill="rgb(135,95,135)">▌</text>
  <text x="289.2" y="30.2" font-size="14" fill="rgb(187,187,187)"> </text>
  <text x="297.6" y="30.2" font-size="14" fill="rgb(187,187,187)"> </text>
  <text x="306.0" y="30.2" font-size="14" fill="rgb(255,215,95)">4</text>
  <text x="314.4" y="30.2" font-size="14" fill="rgb(255,215,95)">2</text>
  <text x="322.8" y="30.2" font-size="14" fill="rgb(255,215,95)">%</text>
  <text x="331.2" y="30.2" font-size="14" fill="rgb(187,187,187)"> </text>
  <text x="339.6" y="30.2" font-size="14" fill="rgb(135,95,135)">━</text>
  <text x="348.0" y="30.2" font-size="14" fill="rgb(187,187,187)"> </text>
  <text x="356.4" y="30.2" font-size="14" fill="rgb(135,95,135)">5</text>
  <text x="364.8" y="30.2" font-size="14" fill="rgb(135,95,135)">H</text>
  <text x="373.2" y="30.2" font-size="14" fill="rgb(135,95,135)"> </text>
  <text x="381.6" y="30.2" font-size="14" fill="rgb(255,215,95)">4</text>
  <text x="390.0" y="30.2" font-size="14" fill="rgb(255,215,95)">2</text>
  <text x="398.4" y="30.2" font-size="14" fill="rgb(255,215,95)">%</text>
  <text x="406.8" y="30.2" font-size="14" fill="rgb(135,95,135)">@</text>
  <text x="415.2" y="30.2" font-size="14" fill="rgb(255,215,135)">3</text>
  <text x="423.6" y="30.2" font-size="14" fill="rgb(255,215,135)">P</text>
  <text x="432.0" y="30.2" font-size="14" fill="rgb(187,187,187)"> </text>
  <text x="440.4" y="30.2" font-size="14" fill="rgb(135,95,135)">━</text>
  <text x="448.8" y="30.2" font-size="14" fill="rgb(187,187,187)"> </text>
  <text x="457.2" y="30.2" font-size="14" fill="rgb(135,95,135)">7</text>
  <text x="465.6" y="30.2" font-size="14" fill="rgb(135,95,135)">D</text>
  <text x="474.0" y="30.2" font-size="14" fill="rgb(135,95,135)"> </text>
  <text x="482.4" y="30.2" font-size="14" fill="rgb(175,215,255)">1</text>
  <text x="490.8" y="30.2" font-size="14" fill="rgb(175,215,255)">5</text>
  <text x="499.2" y="30.2" font-size="14" fill="rgb(175,215,255)">%</text>
  <text x="507.6" y="30.2" font-size="14" fill="rgb(187,187,187)"> </text>
  <text x="516.0" y="30.2" font-size="14" fill="rgb(135,95,135)">━</text>
  <text x="524.4" y="30.2" font-size="14" fill="rgb(187,187,187)"> </text>
  <text x="532.8" y="30.2" font-size="14" fill="rgb(135,95,135)">1</text>
  <text x="541.2" y="30.2" font-size="14" fill="rgb(135,95,135)">2</text>
  <text x="549.6" y="30.2" font-size="14" fill="rgb(135,95,135)">M</text>
  <text x="12.0" y="56.2" font-size="13" fill="rgb(135,95,135)">█</text>
  <text x="20.4" y="56.2" font-size="13" fill="rgb(135,95,135)">█</text>
  <text x="28.8" y="56.2" font-size="13" fill="rgb(187,187,187)"> </text>
  <text x="37.2" y="56.2" font-size="13" fill="rgb(135,95,135)">━</text>
  <text x="45.6" y="56.2" font-size="13" fill="rgb(187,187,187)"> </text>
  <text x="54.0" y="56.2" font-size="13" fill="rgb(175,215,255)">▐</text>
  <rect x="62.4" y="38" width="8.4" height="26" fill="rgb(175,215,255)"/>
  <text x="62.4" y="56.2" font-size="13" font-weight="bold" fill="rgb(0,0,0)">M</text>
  <rect x="70.8" y="38" width="8.4" height="26" fill="rgb(175,215,255)"/>
  <text x="70.8" y="56.2" font-size="13" font-weight="bold" fill="rgb(0,0,0)">A</text>
  <rect x="79.2" y="38" width="8.4" height="26" fill="rgb(175,215,255)"/>
  <text x="79.2" y="56.2" font-size="13" font-weight="bold" fill="rgb(0,0,0)">I</text>
  <rect x="87.6" y="38" width="8.4" height="26" fill="rgb(175,215,255)"/>
  <text x="87.6" y="56.2" font-size="13" font-weight="bold" fill="rgb(0,0,0)">N</text>
  <text x="96.0" y="56.2" font-size="13" fill="rgb(175,215,255)">▌</text>
  <text x="104.4" y="56.2" font-size="13" fill="rgb(187,187,187)"> </text>
  <text x="112.8" y="56.2" font-size="13" fill="rgb(135,95,135)">━</text>
  <text x="121.2" y="56.2" font-size="13" fill="rgb(187,187,187)"> </text>
  <text x="129.6" y="56.2" font-size="13" fill="rgb(255,215,135)">G</text>
  <text x="138.0" y="56.2" font-size="13" fill="rgb(255,215,135)">H</text>
  <text x="146.4" y="56.2" font-size="13" fill="rgb(255,215,135)">:</text>
  <text x="154.8" y="56.2" font-size="13" fill="rgb(255,215,135)">E</text>
  <text x="163.2" y="56.2" font-size="13" fill="rgb(255,215,135)">X</text>
  <text x="171.6" y="56.2" font-size="13" fill="rgb(255,215,135)">A</text>
  <text x="180.0" y="56.2" font-size="13" fill="rgb(255,215,135)">M</text>
  <text x="188.4" y="56.2" font-size="13" fill="rgb(255,215,135)">P</text>
  <text x="196.8" y="56.2" font-size="13" fill="rgb(255,215,135)">L</text>
  <text x="205.2" y="56.2" font-size="13" fill="rgb(255,215,135)">E</text>
  <text x="213.6" y="56.2" font-size="13" fill="rgb(187,187,187)"> </text>
  <text x="222.0" y="56.2" font-size="13" fill="rgb(135,95,135)">━</text>
  <text x="230.4" y="56.2" font-size="13" fill="rgb(187,187,187)"> </text>
  <text x="238.8" y="56.2" font-size="13" fill="rgb(255,215,95)">▲</text>
  <text x="247.2" y="56.2" font-size="13" fill="rgb(255,215,95)">1</text>
  <text x="255.6" y="56.2" font-size="13" fill="rgb(187,187,187)"> </text>
  <text x="264.0" y="56.2" font-size="13" fill="rgb(135,95,135)">━</text>
  <text x="272.4" y="56.2" font-size="13" fill="rgb(187,187,187)"> </text>
  <text x="280.8" y="56.2" font-size="13" fill="rgb(255,175,0)">▐</text>
  <rect x="289.2" y="38" width="8.4" height="26" fill="rgb(255,175,0)"/>
  <text x="289.2" y="56.2" font-size="13" font-weight="bold" fill="rgb(0,0,0)">Δ</text>
  <rect x="297.6" y="38" width="8.4" height="26" fill="rgb(255,175,0)"/>
  <text x="297.6" y="56.2" font-size="13" font-weight="bold" fill="rgb(0,0,0)">2</text>
  <text x="306.0" y="56.2" font-size="13" fill="rgb(255,175,0)">▌</text>
  <text x="314.4" y="56.2" font-size="13" fill="rgb(187,187,187)"> </text>
  <text x="322.8" y="56.2" font-size="13" fill="rgb(135,95,135)">━</text>
  <text x="331.2" y="56.2" font-size="13" fill="rgb(187,187,187)"> </text>
  <text x="339.6" y="56.2" font-size="13" fill="rgb(255,215,135)">/</text>
  <text x="348.0" y="56.2" font-size="13" fill="rgb(255,215,135)">H</text>
  <text x="356.4" y="56.2" font-size="13" fill="rgb(255,215,135)">O</text>
  <text x="364.8" y="56.2" font-size="13" fill="rgb(255,215,135)">M</text>
  <text x="373.2" y="56.2" font-size="13" fill="rgb(255,215,135)">E</text>
  <text x="381.6" y="56.2" font-size="13" fill="rgb(255,215,135)">/</text>
  <text x="390.0" y="56.2" font-size="13" fill="rgb(255,215,135)">E</text>
  <text x="398.4" y="56.2" font-size="13" fill="rgb(255,215,135)">X</text>
  <text x="406.8" y="56.2" font-size="13" fill="rgb(255,215,135)">A</text>
  <text x="415.2" y="56.2" font-size="13" fill="rgb(255,215,135)">M</text>
  <text x="423.6" y="56.2" font-size="13" fill="rgb(255,215,135)">P</text>
  <text x="432.0" y="56.2" font-size="13" fill="rgb(255,215,135)">L</text>
  <text x="440.4" y="56.2" font-size="13" fill="rgb(255,215,135)">E</text>
  <text x="448.8" y="56.2" font-size="13" fill="rgb(255,215,135)">/</text>
  <text x="457.2" y="56.2" font-size="13" fill="rgb(255,215,135)">P</text>
  <text x="465.6" y="56.2" font-size="13" fill="rgb(255,215,135)">R</text>
  <text x="474.0" y="56.2" font-size="13" fill="rgb(255,215,135)">O</text>
  <text x="482.4" y="56.2" font-size="13" fill="rgb(255,215,135)">J</text>
  <text x="490.8" y="56.2" font-size="13" fill="rgb(255,215,135)">E</text>
  <text x="499.2" y="56.2" font-size="13" fill="rgb(255,215,135)">C</text>
  <text x="507.6" y="56.2" font-size="13" fill="rgb(255,215,135)">T</text>
</svg>