<svg xmlns="http://www.w3.org/2000/svg" viewBox="0 0 503 76" width="503" height="76">
  <title>monochrome theme / synthetic session at 85% context</title><style>text { font-family: JetBrains Mono, Cascadia Code, Consolas, monospace; }</style>
  <rect width="100%" height="100%" rx="0" fill="#0d1117"/>
  <text x="12.0" y="30.2" font-size="14" fill="rgb(138,138,138)">d</text>
  <text x="20.4" y="30.2" font-size="14" fill="rgb(138,138,138)">e</text>
  <text x="28.8" y="30.2" font-size="14" fill="rgb(187,187,187)"> </text>
  <text x="37.2" y="30.2" font-size="14" fill="rgb(88,88,88)">│</text>
  <text x="45.6" y="30.2" font-size="14" fill="rgb(187,187,187)"> </text>
  <text x="54.0" y="30.2" font-size="14" font-weight="bold" fill="rgb(218,218,218)">O</text>
  <text x="62.4" y="30.2" font-size="14" font-weight="bold" fill="rgb(218,218,218)">p</text>
  <text x="70.8" y="30.2" font-size="14" font-weight="bold" fill="rgb(218,218,218)">4</text>
  <text x="79.2" y="30.2" font-size="14" font-weight="bold" fill="rgb(218,218,218)">6</text>
  <text x="87.6" y="30.2" font-size="14" fill="rgb(88,88,88)"> </text>
  <text x="96.0" y="30.2" font-size="14" fill="rgb(88,88,88)">1</text>
  <text x="104.4" y="30.2" font-size="14" fill="rgb(88,88,88)">M</text>
  <text x="112.8" y="30.2" font-size="14" fill="rgb(187,187,187)"> </text>
  <text x="121.2" y="30.2" font-size="14" fill="rgb(88,88,88)">│</text>
  <text x="129.6" y="30.2" font-size="14" fill="rgb(187,187,187)"> </text>
  <text x="138.0" y="30.2" font-size="14" fill="rgb(178,178,178)">█</text>
  <text x="146.4" y="30.2" font-size="14" fill="rgb(178,178,178)">█</text>
  <text x="154.8" y="30.2" font-size="14" fill="rgb(178,178,178)">█</text>
  <text x="163.2" y="30.2" font-size="14" fill="rgb(178,178,178)">█</text>
  <text x="171.6" y="30.2" font-size="14" fill="rgb(178,178,178)">█</text>
  <text x="180.0" y="30.2" font-size="14" fill="rgb(178,178,178)">█</text>
  <text x="188.4" y="30.2" font-size="14" fill="rgb(218,218,218)">█</text>
  <text x="196.8" y="30.2" font-size="14" fill="rgb(218,218,218)">█</text>
  <text x="205.2" y="30.2" font-size="14" fill="rgb(238,238,238)">▒</text>
  <text x="213.6" y="30.2" font-size="14" fill="rgb(58,58,58)">─</text>
  <text x="222.0" y="30.2" font-size="14" fill="rgb(187,187,187)"> </text>
  <text x="230.4" y="30.2" font-size="14" fill="rgb(187,187,187)"> </text>
  <text x="238.8" y="30.2" font-size="14" fill="rgb(238,238,238)">8</text>
  <text x="247.2" y="30.2" font-size="14" fill="rgb(238,238,238)">5</text>
  <text x="255.6" y="30.2" font-size="14" fill="rgb(238,238,238)">%</text>
  <text x="264.0" y="30.2" font-size="14" fill="rgb(187,187,187)"> </text>
  <text x="272.4" y="30.2" font-size="14" fill="rgb(88,88,88)">│</text>
  <text x="280.8" y="30.2" font-size="14" fill="rgb(187,187,187)"> </text>
  <text x="289.2" y="30.2" font-size="14" fill="rgb(88,88,88)">5</text>
  <text x="297.6" y="30.2" font-size="14" fill="rgb(88,88,88)">h</text>
  <text x="306.0" y="30.2" font-size="14" fill="rgb(88,88,88)"> </text>
  <text x="314.4" y="30.2" font-size="14" fill="rgb(178,178,178)">4</text>
  <text x="322.8" y="30.2" font-size="14" fill="rgb(178,178,178)">2</text>
  <text x="331.2" y="30.2" font-size="14" fill="rgb(178,178,178)">%</text>
  <text x="339.6" y="30.2" font-size="14" fill="rgb(58,58,58)">@</text>
  <text x="348.0" y="30.2" font-size="14" fill="rgb(58,58,58)">3</text>
  <text x="356.4" y="30.2" font-size="14" fill="rgb(58,58,58)">p</text>
  <text x="364.8" y="30.2" font-size="14" fill="rgb(187,187,187)"> </text>
  <text x="373.2" y="30.2" font-size="14" fill="rgb(88,88,88)">│</text>
  <text x="381.6" y="30.2" font-size="14" fill="rgb(187,187,187)"> </text>
  <text x="390.0" y="30.2" font-size="14" fill="rgb(88,88,88)">7</text>
  <text x="398.4" y="30.2" font-size="14" fill="rgb(88,88,88)">d</text>
  <text x="406.8" y="30.2" font-size="14" fill="rgb(88,88,88)"> </text>
  <text x="415.2" y="30.2" font-size="14" fill="rgb(88,88,88)">1</text>
  <text x="423.6" y="30.2" font-size="14" fill="rgb(88,88,88)">5</text>
  <text x="432.0" y="30.2" font-size="14" fill="rgb(88,88,88)">%</text>
  <text x="440.4" y="30.2" font-size="14" fill="rgb(187,187,187)"> </text>
  <text x="448.8" y="30.2" font-size="14" fill="rgb(88,88,88)">│</text>
  <text x="457.2" y="30.2" font-size="14" fill="rgb(187,187,187)"> </text>
  <text x="465.6" y="30.2" font-size="14" fill="rgb(58,58,58)">1</text>
  <text x="474.0" y="30.2" font-size="14" fill="rgb(58,58,58)">2</text>
  <text x="482.4" y="30.2" font-size="14" fill="rgb(58,58,58)">m</text>
  <text x="12.0" y="56.2" font-size="13" fill="rgb(138,138,138)">m</text>
  <text x="20.4" y="56.2" font-size="13" fill="rgb(138,138,138)">a</text>
  <text x="28.8" y="56.2" font-size="13" fill="rgb(138,138,138)">i</text>
  <text x="37.2" y="56.2" font-size="13" fill="rgb(138,138,138)">n</text>
  <text x="45.6" y="56.2" font-size="13" fill="rgb(187,187,187)"> </text>
  <text x="54.0" y="56.2" font-size="13" fill="rgb(58,58,58)">→</text>
  <text x="62.4" y="56.2" font-size="13" fill="rgb(58,58,58)">g</text>
  <text x="70.8" y="56.2" font-size="13" fill="rgb(58,58,58)">h</text>
  <text x="79.2" y="56.2" font-size="13" fill="rgb(58,58,58)">:</text>
  <text x="87.6" y="56.2" font-size="13" fill="rgb(58,58,58)">e</text>
  <text x="96.0" y="56.2" font-size="13" fill="rgb(58,58,58)">x</text>
  <text x="104.4" y="56.2" font-size="13" fill="rgb(58,58,58)">a</text>
  <text x="112.8" y="56.2" font-size="13" fill="rgb(58,58,58)">m</text>
  <text x="121.2" y="56.2" font-size="13" fill="rgb(58,58,58)">p</text>
  <text x="129.6" y="56.2" font-size="13" fill="rgb(58,58,58)">l</text>
  <text x="138.0" y="56.2" font-size="13" fill="rgb(58,58,58)">e</text>
  <text x="146.4" y="56.2" font-size="13" fill="rgb(187,187,187)"> </text>
  <text x="154.8" y="56.2" font-size="13" fill="rgb(218,218,218)">↑</text>
  <text x="163.2" y="56.2" font-size="13" fill="rgb(218,218,218)">1</text>
  <text x="171.6" y="56.2" font-size="13" fill="rgb(187,187,187)"> </text>
  <text x="180.0" y="56.2" font-size="13" fill="rgb(138,138,138)">+</text>
  <text x="188.4" y="56.2" font-size="13" fill="rgb(138,138,138)">2</text>
  <text x="196.8" y="56.2" font-size="13" fill="rgb(187,187,187)"> </text>
  <text x="205.2" y="56.2" font-size="13" fill="rgb(88,88,88)">│</text>
  <text x="213.6" y="56.2" font-size="13" fill="rgb(187,187,187)"> </text>
  <text x="222.0" y="56.2" font-size="13" fill="rgb(218,218,218)">/</text>
  <text x="230.4" y="56.2" font-size="13" fill="rgb(218,218,218)">h</text>
  <text x="238.8" y="56.2" font-size="13" fill="rgb(218,218,218)">o</text>
  <text x="247.2" y="56.2" font-size="13" fill="rgb(218,218,218)">m</text>
  <text x="255.6" y="56.2" font-size="13" fill="rgb(218,218,218)">e</text>
  <text x="264.0" y="56.2" font-size="13" fill="rgb(218,218,218)">/</text>
  <text x="272.4" y="56.2" font-size="13" fill="rgb(218,218,218)">e</text>
  <text x="280.8" y="56.2" font-size="13" fill="rgb(218,218,218)">x</text>
  <text x="289.2" y="56.2" font-size="13" fill="rgb(218,218,218)">a</text>
  <text x="297.6" y="56.2" font-size="13" fill="rgb(218,218,218)">m</text>
  <text x="306.0" y="56.2" font-size="13" fill="rgb(218,218,218)">p</text>
  <text x="314.4" y="56.2" font-size="13" fill="rgb(218,218,218)">l</text>
  <text x="322.8" y="56.2" font-size="13" fill="rgb(218,218,218)">e</text>
  <text x="331.2" y="56.2" font-size="13" fill="rgb(218,218,218)">/</text>
  <text x="339.6" y="56.2" font-size="13" fill="rgb(218,218,218)">p</text>
  <text x="348.0" y="56.2" font-size="13" fill="rgb(218,218,218)">r</text>
  <text x="356.4" y="56.2" font-size="13" fill="rgb(218,218,218)">o</text>
  <text x="364.8" y="56.2" font-size="13" fill="rgb(218,218,218)">j</text>
  <text x="373.2" y="56.2" font-size="13" fill="rgb(218,218,218)">e</text>
  <text x="381.6" y="56.2" font-size="13" fill="rgb(218,218,218)">c</text>
  <text x="390.0" y="56.2" font-size="13" fill="rgb(218,218,218)">t</text>
</svg>